<?xml version="1.0" encoding="UTF-8"?>
<!DOCTYPE svg PUBLIC "-//W3C//DTD SVG 1.1//EN" "http://www.w3.org/Graphics/SVG/1.1/DTD/svg11.dtd">
<!-- Creator: CorelDRAW 2021 (64 Bit) -->
<svg xmlns="http://www.w3.org/2000/svg" xml:space="preserve" width="50px" height="71px" version="1.1" style="shape-rendering:geometricPrecision; text-rendering:geometricPrecision; image-rendering:optimizeQuality; fill-rule:evenodd; clip-rule:evenodd"
viewBox="0 0 4.07 5.82"
 xmlns:xlink="http://www.w3.org/1999/xlink"
 xmlns:xodm="http://www.corel.com/coreldraw/odm/2003">
 <defs>
  <style type="text/css">
   <![CDATA[
    .fil0 {fill:black;fill-rule:nonzero}
   ]]>
  </style>
 </defs>
 <g id="Camada_x0020_1">
  <metadata id="CorelCorpID_0Corel-Layer"/>
  <g id="_1834389067008">
   <g>
    <path class="fil0" d="M1.96 0c-0.01,0.01 -0.05,0.01 -0.08,0.01 -0.26,0.03 -0.52,0.12 -0.73,0.27 -0.38,0.25 -0.63,0.64 -0.71,1.08 -0.02,0.13 -0.02,0.16 -0.02,0.69 0,0.39 0,0.51 -0.01,0.51 0,0 -0.05,0 -0.21,0l-0.2 0 0 1.63c0,1.48 0,1.62 0.01,1.63 0,0 0.92,0 2.03,0l2.03 0 0 -1.63 0 -1.63 -0.19 0 -0.2 0 0 -0.53c0,-0.51 0,-0.53 -0.01,-0.6 -0.05,-0.3 -0.15,-0.54 -0.32,-0.78 -0.27,-0.36 -0.69,-0.59 -1.13,-0.64 -0.03,0 -0.07,0 -0.09,-0.01 -0.04,0 -0.13,0 -0.17,0l0 0zm0.24 0.65c0.22,0.04 0.42,0.14 0.57,0.3 0.14,0.15 0.23,0.33 0.27,0.55 0,0.05 0,0.09 0,0.56l0 0.5 -0.99 0 -1 0 0 -0.49c0,-0.34 0,-0.5 0.01,-0.53 0.04,-0.42 0.34,-0.76 0.74,-0.87 0.05,-0.01 0.12,-0.02 0.18,-0.03 0.04,0 0.17,0 0.22,0.01l0 0z"/>
   </g>
  </g>
 </g>
</svg>
