<?xml version="1.0" encoding="UTF-8"?>
<!DOCTYPE svg PUBLIC "-//W3C//DTD SVG 1.1//EN" "http://www.w3.org/Graphics/SVG/1.1/DTD/svg11.dtd">
<!-- Creator: CorelDRAW 2021 (64 Bit) -->
<svg xmlns="http://www.w3.org/2000/svg" xml:space="preserve" width="70px" height="70px" version="1.1" style="shape-rendering:geometricPrecision; text-rendering:geometricPrecision; image-rendering:optimizeQuality; fill-rule:evenodd; clip-rule:evenodd"
viewBox="0 0 3.36 3.36"
 xmlns:xlink="http://www.w3.org/1999/xlink"
 xmlns:xodm="http://www.corel.com/coreldraw/odm/2003">
 <defs>
  <style type="text/css">
   <![CDATA[
    .fil0 {fill:black;fill-rule:nonzero}
   ]]>
  </style>
 </defs>
 <g id="Camada_x0020_1">
  <metadata id="CorelCorpID_0Corel-Layer"/>
  <g id="_1834908697184">
   <g>
    <path class="fil0" d="M2.45 0c-0.25,0.02 -0.46,0.13 -0.61,0.32 -0.08,0.1 -0.14,0.24 -0.16,0.36 -0.02,0.08 -0.02,0.06 -0.02,0.48l0 0.38 -0.83 0 -0.83 0 0 0.91 0 0.91 1.09 0 1.08 0 0 -0.91 0 -0.91 -0.12 0 -0.12 0 0 -0.37c0,-0.41 0,-0.39 0.02,-0.46 0.01,-0.06 0.04,-0.13 0.07,-0.18 0.06,-0.08 0.13,-0.15 0.21,-0.19 0.09,-0.05 0.18,-0.07 0.28,-0.07 0.16,0 0.29,0.06 0.41,0.17 0.08,0.08 0.14,0.18 0.16,0.3 0.01,0.05 0.01,0.11 0.01,0.45l0 0.35 0.13 0 0.14 0 0 -0.38c0,-0.36 0,-0.4 -0.01,-0.42 -0.02,-0.15 -0.06,-0.26 -0.13,-0.37 -0.04,-0.04 -0.07,-0.08 -0.11,-0.12 -0.14,-0.14 -0.3,-0.22 -0.5,-0.24 -0.03,-0.01 -0.13,-0.01 -0.16,-0.01l0 0z"/>
   </g>
  </g>
 </g>
</svg>
