<?xml version="1.0" encoding="UTF-8"?>
<!DOCTYPE svg PUBLIC "-//W3C//DTD SVG 1.1//EN" "http://www.w3.org/Graphics/SVG/1.1/DTD/svg11.dtd">
<!-- Creator: CorelDRAW 2021 (64 Bit) -->
<svg xmlns="http://www.w3.org/2000/svg" xml:space="preserve" width="25px" height="25px" version="1.1" style="shape-rendering:geometricPrecision; text-rendering:geometricPrecision; image-rendering:optimizeQuality; fill-rule:evenodd; clip-rule:evenodd"
viewBox="0 0 0.48 0.48"
 xmlns:xlink="http://www.w3.org/1999/xlink"
 xmlns:xodm="http://www.corel.com/coreldraw/odm/2003">
 <defs>
  <style type="text/css">
   <![CDATA[
    .fil0 {fill:black}
    .fil1 {fill:#FEFEFE}
   ]]>
  </style>
 </defs>
 <g id="Camada_x0020_1">
  <metadata id="CorelCorpID_0Corel-Layer"/>
  <g id="_2018878344720">
   <path class="fil0" d="M0.04 0l0.4 0c0.02,0 0.04,0.02 0.04,0.04l0 0.4c0,0.02 -0.02,0.04 -0.04,0.04l-0.4 0c-0.02,0 -0.04,-0.02 -0.04,-0.04l0 -0.4c0,-0.02 0.02,-0.04 0.04,-0.04z"/>
   <path class="fil1" d="M0.19 0.43l0 -0.04c-0.03,0 -0.05,0 -0.06,-0.02 0,0 -0.04,-0.05 -0.04,-0.05 0.06,0 0.02,0.05 0.1,0.04l0.01 -0.03c-0.05,-0.02 -0.08,-0.02 -0.09,-0.07 0,-0.03 0,-0.05 0.01,-0.07 0.01,-0.02 0.01,-0.04 0.01,-0.06 0.04,0 0.03,0 0.05,0.01l0.11 0c0.01,0 0.02,-0.01 0.03,-0.01 0.04,-0.01 0.02,0.03 0.03,0.06 0.01,0.02 0.02,0.04 0.01,0.07 -0.01,0.06 -0.04,0.05 -0.08,0.07 0.01,0.04 0,0.06 0.01,0.1 0.05,0.01 0.16,-0.09 0.14,-0.21 -0.01,-0.1 -0.09,-0.18 -0.19,-0.18 -0.17,0 -0.25,0.2 -0.17,0.32 0.03,0.02 0.07,0.07 0.12,0.07l0 0 0 0z"/>
  </g>
 </g>
</svg>
