<?xml version="1.0" encoding="UTF-8"?>
<!DOCTYPE svg PUBLIC "-//W3C//DTD SVG 1.1//EN" "http://www.w3.org/Graphics/SVG/1.1/DTD/svg11.dtd">
<!-- Creator: CorelDRAW 2021 (64 Bit) -->
<svg xmlns="http://www.w3.org/2000/svg" xml:space="preserve" width="24px" height="24px" version="1.1" style="shape-rendering:geometricPrecision; text-rendering:geometricPrecision; image-rendering:optimizeQuality; fill-rule:evenodd; clip-rule:evenodd"
viewBox="0 0 0.43 0.43"
 xmlns:xlink="http://www.w3.org/1999/xlink"
 xmlns:xodm="http://www.corel.com/coreldraw/odm/2003">
 <defs>
  <style type="text/css">
   <![CDATA[
    .fil0 {fill:black}
    .fil1 {fill:#FEFEFE}
   ]]>
  </style>
 </defs>
 <g id="Camada_x0020_1">
  <metadata id="CorelCorpID_0Corel-Layer"/>
  <g id="_1583716388528">
   <path class="fil0" d="M0.03 0l0.36 0c0.02,0 0.04,0.02 0.04,0.03l0 0.36c0,0.02 -0.02,0.04 -0.04,0.04l-0.36 0c-0.01,0 -0.03,-0.02 -0.03,-0.04l0 -0.36c0,-0.01 0.02,-0.03 0.03,-0.03z"/>
   <path class="fil1" d="M0.06 0.16l0.06 0 0 0.2 -0.06 0 0 -0.2zm0.03 -0.1c0.02,0 0.04,0.01 0.04,0.03 0,0.02 -0.02,0.04 -0.04,0.04 -0.02,0 -0.03,-0.02 -0.03,-0.04 0,-0.02 0.01,-0.03 0.03,-0.03zm0.13 0.13c0.04,-0.05 0.14,-0.05 0.14,0.05 0,0.12 0,0.12 0,0.12l-0.06 0 0 -0.1c0,-0.07 -0.08,-0.06 -0.08,-0.01l0 0.11 -0.06 0 0 -0.2 0.06 0 0 0.03 0 0z"/>
  </g>
 </g>
</svg>
