<?xml version="1.0" encoding="UTF-8"?>
<!DOCTYPE svg PUBLIC "-//W3C//DTD SVG 1.1//EN" "http://www.w3.org/Graphics/SVG/1.1/DTD/svg11.dtd">
<!-- Creator: CorelDRAW 2021 (64 Bit) -->
<svg xmlns="http://www.w3.org/2000/svg" xml:space="preserve" width="25px" height="25px" version="1.1" style="shape-rendering:geometricPrecision; text-rendering:geometricPrecision; image-rendering:optimizeQuality; fill-rule:evenodd; clip-rule:evenodd"
viewBox="0 0 0.48 0.48"
 xmlns:xlink="http://www.w3.org/1999/xlink"
 xmlns:xodm="http://www.corel.com/coreldraw/odm/2003">
 <defs>
  <style type="text/css">
   <![CDATA[
    .fil1 {fill:black}
    .fil0 {fill:white}
   ]]>
  </style>
 </defs>
 <g id="Camada_x0020_1">
  <metadata id="CorelCorpID_0Corel-Layer"/>
  <g id="_1664247403632">
   <path class="fil0" d="M0.06 0.02l0.37 0c0.02,0 0.04,0.02 0.04,0.04l0 0.37c0,0.02 -0.02,0.04 -0.04,0.04l-0.37 0c-0.02,0 -0.04,-0.02 -0.04,-0.04l0 -0.37c0,-0.02 0.02,-0.04 0.04,-0.04z"/>
   <path class="fil1" d="M0.04 0l0.41 0c0.02,0 0.03,0.02 0.03,0.04l0 0.41c0,0.02 -0.01,0.03 -0.03,0.03l-0.41 0c-0.02,0 -0.04,-0.01 -0.04,-0.03l0 -0.41c0,-0.02 0.02,-0.04 0.04,-0.04zm0.13 0.38l-0.09 0.03 0.02 -0.09c-0.01,-0.03 -0.01,-0.05 -0.01,-0.08 0,-0.09 0.07,-0.16 0.16,-0.16 0.08,0 0.16,0.07 0.16,0.16 0,0.09 -0.08,0.16 -0.16,0.16 -0.03,0 -0.06,-0.01 -0.08,-0.02zm0 -0.14c0,-0.02 -0.01,-0.03 -0.01,-0.04 0.01,-0.03 0.02,-0.03 0.03,-0.03 0,0 0,0 0,0l0.01 0c0,0 0,0 0,0l0.02 0.03c0,0.01 0,0.01 0,0.01 -0.01,0.01 -0.01,0.01 -0.02,0.02 0,0 0,0 0,0 0.02,0.03 0.04,0.04 0.06,0.05 0,0 0.01,0 0.01,0 0,0 0.01,-0.01 0.01,-0.02 0,0 0.01,0 0.01,0 0.01,0 0.02,0.01 0.03,0.02 0,0 0,0 0,0 0,0.01 0,0.01 0,0.02 0,0.01 -0.01,0.01 -0.02,0.02 -0.02,0 -0.05,-0.01 -0.08,-0.03 0,0 -0.01,-0.01 -0.02,-0.01 -0.01,-0.02 -0.02,-0.03 -0.03,-0.04l0 0zm0.08 -0.13c0.07,0 0.13,0.06 0.13,0.13 0,0.07 -0.06,0.13 -0.13,0.13 -0.03,0 -0.06,-0.01 -0.08,-0.02l-0.05 0.01 0.02 -0.04c-0.02,-0.03 -0.03,-0.05 -0.03,-0.08 0,-0.07 0.06,-0.13 0.14,-0.13z"/>
  </g>
 </g>
</svg>
